<svg width="58" height="20" viewBox="0 0 58 20" fill="none" xmlns="http://www.w3.org/2000/svg">
<path d="M52.9616 18.7989L52.4272 16.1739H46.4565L45.5065 18.7803L40.7208 18.7896C43.7972 11.5267 46.0804 6.14684 47.5703 2.64995C47.9598 1.73528 48.651 1.26861 49.6698 1.27561C50.4488 1.28184 51.7202 1.28261 53.4841 1.27795L57.1843 18.7919L52.9616 18.7989ZM47.7983 12.5783H51.6482L50.2113 5.99828L47.7983 12.5783ZM16.9566 1.27328L21.7683 1.27795L14.3298 18.8013L9.4587 18.7966C8.23379 14.168 7.02412 9.53555 5.8297 4.89928C5.5922 3.97528 5.12195 3.32895 4.21708 3.02328C3.40799 2.75106 2.06374 2.33028 0.184326 1.76095V1.27795H7.8722C9.2022 1.27795 9.97883 1.91028 10.2282 3.20761C10.48 4.50806 11.1133 7.81672 12.1282 13.1336L16.9566 1.27328ZM28.3803 1.27795L24.578 18.7989L19.9966 18.7919L23.7918 1.27328L28.3803 1.27795ZM37.6666 0.953613C39.0369 0.953613 40.7636 1.37361 41.7563 1.76095L40.9536 5.39161C40.0558 5.03695 38.5786 4.55861 37.3364 4.57495C35.5315 4.60528 34.4152 5.34961 34.4152 6.06361C34.4152 7.22561 36.3532 7.81128 38.3482 9.08061C40.6235 10.5273 40.9251 11.8269 40.8966 13.2409C40.8657 16.1693 38.3482 19.0603 33.0377 19.0603C30.6152 19.0253 29.7412 18.8269 27.7652 18.1363L28.6012 14.3469C30.6128 15.1729 31.4655 15.4366 33.185 15.4366C34.7596 15.4366 36.111 14.8113 36.1228 13.7216C36.1323 12.9469 35.6478 12.5619 33.8808 11.6053C32.1138 10.6486 29.6343 9.32095 29.6676 6.65395C29.708 3.24261 32.9973 0.953613 37.6666 0.953613Z" fill="#C9A57B"/>
</svg>
