<svg width="32" height="31" viewBox="0 0 32 31" fill="none" xmlns="http://www.w3.org/2000/svg">
<g clip-path="url(#clip0_48_380)">
<path d="M10.4358 1.47566C9.96963 0.385812 8.74053 -0.194266 7.56592 0.116281L2.23779 1.52253C1.18428 1.80378 0.45166 2.72956 0.45166 3.78425C0.45166 18.2803 12.5974 30.0342 27.5767 30.0342C28.6665 30.0342 29.6231 29.3253 29.9138 28.3057L31.3669 23.1495C31.6878 22.0128 31.0884 20.8233 29.9622 20.3721L24.1497 18.0284C23.1628 17.63 22.0185 17.9053 21.3464 18.7081L18.9003 21.5968C14.6378 19.6456 11.1866 16.3057 9.17041 12.1807L12.1554 9.81941C12.9849 9.16316 13.2694 8.06159 12.8577 7.10651L10.4358 1.48152V1.47566Z" fill="#C9A57B"/>
</g>
<defs>
<clipPath id="clip0_48_380">
<rect width="31" height="30" fill="white" transform="translate(0.45166 0.0344849)"/>
</clipPath>
</defs>
</svg>
