<svg width="31" height="31" viewBox="0 0 31 31" fill="none" xmlns="http://www.w3.org/2000/svg">
<path d="M18.2857 0.214479L17.3832 0.0878119C14.6709 -0.303813 11.9031 0.0836245 9.40251 1.20496C6.90194 2.32629 4.77162 4.13532 3.25991 6.42114C1.65149 8.60611 0.692672 11.2008 0.493796 13.9067C0.29492 16.6125 0.864069 19.3195 2.13575 21.7161C2.26589 21.9563 2.34692 22.2201 2.3741 22.4919C2.40129 22.7637 2.37408 23.0383 2.29408 23.2995C1.64491 25.532 1.04325 27.7803 0.409912 30.1395L1.20158 29.902C3.33908 29.332 5.47658 28.762 7.61408 28.2395C8.06524 28.1457 8.53418 28.1898 8.95991 28.3661C10.8776 29.3021 12.9734 29.817 15.1065 29.8763C17.2396 29.9356 19.3607 29.538 21.3275 28.7101C23.2943 27.8822 25.0612 26.6432 26.5097 25.0762C27.9583 23.5092 29.0548 21.6505 29.7259 19.6248C30.3969 17.5991 30.6269 15.4533 30.4004 13.3315C30.1739 11.2096 29.4962 9.16069 28.4127 7.32231C27.3291 5.48392 25.8649 3.89857 24.1183 2.67264C22.3716 1.44672 20.383 0.608577 18.2857 0.214479ZM22.2757 20.9878C21.7003 21.503 20.9986 21.8565 20.2421 22.0123C19.4855 22.168 18.7012 22.1205 17.9691 21.8745C14.6513 20.9403 11.7729 18.8586 9.84658 16.0003C9.11078 14.9894 8.51927 13.881 8.08908 12.707C7.8561 12.0258 7.81408 11.2938 7.9676 10.5904C8.12111 9.88706 8.46429 9.23915 8.95991 8.71698C9.20119 8.40904 9.52961 8.18091 9.9024 8.0623C10.2752 7.94368 10.6751 7.94009 11.0499 8.05198C11.3666 8.13115 11.5882 8.59031 11.8732 8.93864C12.1044 9.59256 12.3752 10.2322 12.6807 10.8545C12.9126 11.1719 13.0094 11.5682 12.9501 11.9569C12.8908 12.3455 12.6801 12.6948 12.3641 12.9286C11.6516 13.562 11.7624 14.0845 12.2691 14.797C13.3892 16.4107 14.9348 17.6822 16.7341 18.4703C17.2407 18.692 17.6207 18.7395 17.9532 18.217C18.0957 18.0111 18.2857 17.837 18.4441 17.647C19.3624 16.4911 19.0774 16.507 20.5341 17.1403C20.998 17.3351 21.4477 17.5631 21.8799 17.8211C22.3074 18.0745 22.9566 18.3436 23.0516 18.7236C23.143 19.1359 23.1189 19.5654 22.982 19.9648C22.8452 20.3643 22.6008 20.7183 22.2757 20.9878Z" fill="#C9A57B"/>
</svg>
