<svg width="44" height="55" viewBox="0 0 44 55" fill="none" xmlns="http://www.w3.org/2000/svg">
<path d="M44 3.2294V39.5756C44 40.6573 43.6754 41.62 43.026 42.4638C42.3767 43.3075 41.5556 43.962 40.5625 44.4271C39.5694 44.8923 38.5812 45.2384 37.5977 45.4656C36.6142 45.6927 35.6927 45.8063 34.8333 45.8063C33.974 45.8063 33.0525 45.6927 32.069 45.4656C31.0855 45.2384 30.0972 44.8923 29.1042 44.4271C28.1111 43.962 27.2899 43.3075 26.6406 42.4638C25.9913 41.62 25.6667 40.6573 25.6667 39.5756C25.6667 38.4938 25.9913 37.5311 26.6406 36.6873C27.2899 35.8436 28.1111 35.1891 29.1042 34.724C30.0972 34.2588 31.0855 33.9127 32.069 33.6855C33.0525 33.4584 33.974 33.3448 34.8333 33.3448C36.8385 33.3448 38.6719 33.7667 40.3333 34.6104V10.2606L18.3333 17.9518V47.8832C18.3333 48.965 18.0087 49.9277 17.3594 50.7715C16.7101 51.6152 15.8889 52.2697 14.8958 52.7348C13.9028 53.2 12.9145 53.5461 11.931 53.7733C10.9475 54.0004 10.026 54.114 9.16667 54.114C8.30729 54.114 7.38585 54.0004 6.40234 53.7733C5.41884 53.5461 4.43056 53.2 3.4375 52.7348C2.44444 52.2697 1.62326 51.6152 0.973958 50.7715C0.324653 49.9277 0 48.965 0 47.8832C0 46.8015 0.324653 45.8388 0.973958 44.995C1.62326 44.1513 2.44444 43.4968 3.4375 43.0317C4.43056 42.5665 5.41884 42.2204 6.40234 41.9932C7.38585 41.7661 8.30729 41.6525 9.16667 41.6525C11.1719 41.6525 13.0052 42.0744 14.6667 42.9181V11.5371C14.6667 10.8664 14.8481 10.2552 15.2109 9.70356C15.5738 9.15187 16.0417 8.76786 16.6146 8.55151L40.4479 0.243821C40.6771 0.157283 40.9444 0.114014 41.25 0.114014C42.0139 0.114014 42.6632 0.416898 43.1979 1.02267C43.7326 1.62844 44 2.36401 44 3.2294Z" fill="#F8F8F8"/>
</svg>
