<svg width="51" height="31" viewBox="0 0 51 31" fill="none" xmlns="http://www.w3.org/2000/svg">
<path d="M48.2991 30.0605H3.29907C1.9186 30.0605 0.799072 28.941 0.799072 27.5605V2.56055C0.799072 1.18008 1.9186 0.0605469 3.29907 0.0605469H48.2991C49.6795 0.0605469 50.7991 1.18008 50.7991 2.56055V27.5605C50.7991 28.941 49.6795 30.0605 48.2991 30.0605ZM4.54907 3.81055V8.81055C7.31079 8.81055 9.54907 6.57227 9.54907 3.81055H4.54907ZM4.54907 21.3105V26.3105H9.54907C9.54907 23.5488 7.31079 21.3105 4.54907 21.3105ZM25.7991 7.56055C22.3467 7.56055 19.5491 10.9191 19.5491 15.0605C19.5491 19.2027 22.3475 22.5605 25.7991 22.5605C29.2506 22.5605 32.0491 19.2027 32.0491 15.0605C32.0491 10.9176 29.2499 7.56055 25.7991 7.56055ZM47.0491 3.81055H42.0491C42.0491 6.57227 44.2874 8.81055 47.0491 8.81055V3.81055ZM47.0491 21.3105C44.2874 21.3105 42.0491 23.5488 42.0491 26.3105H47.0491V21.3105Z" fill="#C9A57B"/>
</svg>
