<svg width="49" height="31" viewBox="0 0 49 31" fill="none" xmlns="http://www.w3.org/2000/svg">
<path d="M23.0648 27.2925C23.1822 27.3912 23.3028 27.4885 23.4268 27.5845C20.9933 29.2027 18.1352 30.0642 15.2128 30.0605C12.8985 30.0604 10.6162 29.5188 8.54862 28.4789C6.48104 27.439 4.6855 25.9296 3.30563 24.0716C1.92576 22.2135 0.999843 20.0584 0.601948 17.7785C0.204052 15.4985 0.345217 13.1571 1.01415 10.9415C1.68308 8.72594 2.86122 6.69763 4.45433 5.01883C6.04744 3.34004 8.01131 2.05735 10.1889 1.27337C12.3664 0.489392 14.6972 0.225873 16.9948 0.503893C19.2924 0.781913 21.4931 1.59376 23.4208 2.87449C23.3008 2.97649 23.1808 3.07049 23.0908 3.17449C21.358 4.66909 19.9678 6.5197 19.0149 8.60019C18.0619 10.6807 17.5687 12.9421 17.5688 15.2305C17.5699 17.517 18.061 19.7767 19.009 21.8574C19.9571 23.9381 21.3401 25.7914 23.0648 27.2925ZM33.5468 0.398487C30.5068 0.398487 27.6848 1.31049 25.3368 2.87449C25.4568 2.97649 25.5768 3.07049 25.6668 3.17449C27.3997 4.66909 28.7899 6.5197 29.7428 8.60019C30.6957 10.6807 31.189 12.9421 31.1888 15.2305C31.1878 17.517 30.6967 19.7767 29.7487 21.8574C28.8006 23.9381 27.4176 25.7914 25.6928 27.2925C25.5755 27.3912 25.4548 27.4885 25.3308 27.5845C27.7643 29.2027 30.6224 30.0642 33.5448 30.0605C35.4928 30.0613 37.4217 29.6783 39.2216 28.9333C41.0214 28.1884 42.6568 27.0961 44.0344 25.7189C45.412 24.3417 46.5047 22.7066 47.2501 20.9069C47.9956 19.1073 48.3791 17.1784 48.3788 15.2305C48.3783 11.297 46.8155 7.52469 44.0341 4.74327C41.2526 1.96184 37.4804 0.399017 33.5468 0.398487ZM24.3788 3.57849C24.1868 3.72649 24.0002 3.88049 23.8188 4.04049C22.216 5.43091 20.9308 7.14975 20.0505 9.08045C19.1702 11.0112 18.7154 13.1086 18.7168 15.2305C18.7135 17.4755 19.2217 19.6917 20.2028 21.711C21.1838 23.7303 22.612 25.4995 24.3788 26.8845C24.5708 26.7352 24.7575 26.5805 24.9388 26.4205C26.5417 25.0301 27.8269 23.3112 28.7072 21.3805C29.5875 19.4498 30.0423 17.3524 30.0408 15.2305C30.0438 12.9858 29.5355 10.77 28.5545 8.75109C27.5734 6.73218 26.1454 4.96324 24.3788 3.57849Z" fill="#C9A57B"/>
</svg>
